<svg xmlns="http://www.w3.org/2000/svg" viewBox="0 0 57.45 28.53"><defs><style>.cls-1{fill:#044cfc;}.cls-2{fill:#f0f0f0;}</style></defs><g id="Layer_2" data-name="Layer 2"><g id="Layer_1-2" data-name="Layer 1"><path class="cls-1" d="M2.56,7.3s8-11,12-6,40,2,42,7,0,14,0,14-13,0-18,5-10-7-18-5-18,6-20,4S2.56,7.3,2.56,7.3Z"/><path class="cls-2" d="M7.08,17.89V11.53H8.79c.79,1.43,2.26,4,2.55,4.7h0c-.08-.67-.07-1.77-.07-2.81V11.53h1.24v6.36H10.91c-.68-1.24-2.3-4.2-2.62-4.93h0c.05.55.07,1.86.07,3v1.93Z"/><path class="cls-2" d="M19.57,17.89h-1a3.32,3.32,0,0,1-.11-.63A2.16,2.16,0,0,1,16.6,18c-1.84,0-2.87-1.39-2.87-3.2a3,3,0,0,1,3.11-3.35,2.52,2.52,0,0,1,2.76,2H18.22a1.28,1.28,0,0,0-1.39-.93c-1.31,0-1.68,1.09-1.68,2.21s.42,2.17,1.68,2.17a1.26,1.26,0,0,0,1.4-1.38v-.06h-1.4V14.33h2.74Z"/><path class="cls-2" d="M26.84,14.69A3,3,0,0,1,23.71,18a3,3,0,0,1-3-3.27,3,3,0,0,1,3.13-3.27A3,3,0,0,1,26.84,14.69Zm-4.75,0c0,1.24.55,2.18,1.67,2.18s1.66-1,1.66-2.15-.5-2.15-1.68-2.15S22.09,13.45,22.09,14.68Z"/><path class="cls-2" d="M28,11.53h2.52a2.89,2.89,0,0,1,3.06,3.1,3,3,0,0,1-3.12,3.26H28Zm1.37,5.25h1c1.22,0,1.76-.91,1.76-2.15,0-1-.5-2-1.75-2h-1Z"/><path class="cls-2" d="M36.2,11.53v6.36H34.83V11.53Z"/><path class="cls-2" d="M37.72,17.89V11.53h1.7c.8,1.43,2.26,4,2.56,4.7h0c-.07-.67-.07-1.77-.07-2.81V11.53h1.25v6.36H41.55c-.68-1.24-2.3-4.2-2.62-4.93h0c.05.55.07,1.86.07,3v1.93Z"/><path class="cls-2" d="M50.21,17.89h-1a4.35,4.35,0,0,1-.1-.63,2.16,2.16,0,0,1-1.86.73c-1.84,0-2.87-1.39-2.87-3.2a3,3,0,0,1,3.11-3.35,2.5,2.5,0,0,1,2.75,2H48.86a1.29,1.29,0,0,0-1.4-.93c-1.3,0-1.67,1.09-1.67,2.21s.42,2.17,1.68,2.17a1.25,1.25,0,0,0,1.39-1.38v-.06H47.47V14.33h2.74Z"/></g></g></svg>