<svg xmlns="http://www.w3.org/2000/svg" viewBox="0 0 581.87 549.05"><defs><style>.cls-1{fill:#1de886;}</style></defs><g id="Layer_2" data-name="Layer 2"><g id="Layer_1-2" data-name="Layer 1"><path class="cls-1" d="M396.93,2.83,579,184.94,396.93,367.05,214.82,184.94,396.93,2.83m0-2.83L212,184.94,396.93,369.88,581.87,184.94,396.93,0Z"/><path class="cls-1" d="M353.85,190.85,531.54,368.53,353.85,546.22,176.17,368.53,353.85,190.85m0-2.83L173.34,368.53,353.85,549.05,534.37,368.53,353.85,188Z"/><path class="cls-1" d="M115.9,249.31,229,362.38,115.9,475.45,2.83,362.38,115.9,249.31m0-2.83L0,362.38l115.9,115.9,115.9-115.9L115.9,246.48Z"/><path class="cls-1" d="M177.44,105.72,290.51,218.79,177.44,331.86,64.37,218.79,177.44,105.72m0-2.83L61.54,218.79l115.9,115.9,115.9-115.9-115.9-115.9Z"/></g></g></svg>