<svg xmlns="http://www.w3.org/2000/svg" viewBox="0 0 581.87 549.05"><defs><style>.cls-1{fill:#1de886;}</style></defs><g id="Layer_2" data-name="Layer 2"><g id="Layer_1-2" data-name="Layer 1"><path class="cls-1" d="M184.94,2.83,367.05,184.94,184.94,367.05,2.83,184.94,184.94,2.83m0-2.83L0,184.94,184.94,369.88,369.88,184.94,184.94,0Z"/><path class="cls-1" d="M228,190.85,405.71,368.53,228,546.22,50.33,368.53,228,190.85m0-2.83L47.5,368.53,228,549.05,408.53,368.53,228,188Z"/><path class="cls-1" d="M466,249.31,579,362.38,466,475.45,352.9,362.38,466,249.31m0-2.83-115.9,115.9L466,478.28l115.9-115.9L466,246.48Z"/><path class="cls-1" d="M404.43,105.72,517.5,218.79,404.43,331.86,291.36,218.79,404.43,105.72m0-2.83-115.9,115.9,115.9,115.9,115.9-115.9-115.9-115.9Z"/></g></g></svg>